<svg aria-hidden="true" style="position: absolute; width: 0; height: 0; overflow: hidden;" version="1.1" xmlns="http://www.w3.org/2000/svg" xmlns:xlink="http://www.w3.org/1999/xlink">
<defs>
<symbol id="icon-heart" viewBox="0 0 20 20">
<path d="M17.19 4.155c-1.672-1.534-4.383-1.534-6.055 0l-1.135 1.042-1.136-1.042c-1.672-1.534-4.382-1.534-6.054 0-1.881 1.727-1.881 4.52 0 6.246l7.19 6.599 7.19-6.599c1.88-1.726 1.88-4.52 0-6.246z"></path>
</symbol>
<symbol id="icon-man" viewBox="0 0 20 20">
<path d="M10 4c1.104 0 2-0.896 2-2s-0.896-2-2-2-2 0.895-2 2c0 1.104 0.896 2 2 2zM15.978 11.583c-0.385-1.775-1.058-4.688-2.042-5.894-0.957-1.173-2.885-1.222-3.936-1.222v0c-1.051 0-2.979 0.049-3.936 1.222-0.984 1.206-1.657 4.119-2.042 5.894-0.213 0.983 1.154 1.344 1.511 0.355 0.531-1.473 0.941-2.71 1.839-3.736 0.472 2.907-1.27 7.966-1.372 10.798 0 0.552 0.448 1 1 1 0.426 0 0.79-0.266 0.934-0.642 0.457-1.587 2.066-6.003 2.066-6.003v0 0c0 0 1.609 4.416 2.066 6.003 0.144 0.376 0.508 0.642 0.934 0.642 0.552 0 1-0.448 1-1-0.102-2.832-1.844-7.891-1.372-10.797 0.898 1.026 1.308 2.263 1.839 3.736 0.356 0.988 1.724 0.627 1.511-0.356z"></path>
</symbol>
<symbol id="icon-palette" viewBox="0 0 20 20">
<path d="M15.74 2.608c-3.528-1.186-7.066-0.961-10.72 1.274-2.853 1.743-4.718 6.076-4.103 9.182 0.728 3.671 4.351 5.995 9.243 4.651 5.275-1.449 6.549-4.546 6.379-5.334s-2.665-1.652-1.718-3.498c1.188-2.313 3.129-1.149 3.982-1.622 0.855-0.472 0.539-3.442-3.063-4.653zM12.094 13.314c-0.798 0.218-1.623-0.256-1.843-1.059-0.221-0.805 0.248-1.631 1.046-1.849s1.622 0.254 1.843 1.059c0.22 0.803-0.248 1.631-1.046 1.849z"></path>
</symbol>
<symbol id="icon-price-ribbon" viewBox="0 0 20 20">
<path d="M12.825 10.653c0.118-0.258 0.445-0.497 0.727-0.529s0.539-0.29 0.571-0.572c0.034-0.28 0.272-0.608 0.529-0.727s0.423-0.443 0.369-0.72c-0.058-0.278 0.068-0.663 0.276-0.854 0.209-0.194 0.266-0.553 0.127-0.801-0.139-0.246-0.139-0.651 0-0.897 0.139-0.249 0.082-0.608-0.127-0.801s-0.333-0.577-0.276-0.854c0.054-0.278-0.111-0.603-0.369-0.722-0.256-0.119-0.495-0.445-0.529-0.727-0.033-0.28-0.29-0.538-0.571-0.572s-0.609-0.272-0.727-0.528c-0.12-0.258-0.444-0.423-0.722-0.366-0.278 0.055-0.662-0.070-0.854-0.278-0.193-0.21-0.553-0.266-0.8-0.127s-0.652 0.139-0.898 0c-0.247-0.141-0.606-0.085-0.801 0.125-0.191 0.208-0.575 0.333-0.854 0.278-0.277-0.056-0.602 0.109-0.72 0.367-0.119 0.256-0.446 0.495-0.728 0.527-0.282 0.035-0.539 0.292-0.572 0.573-0.034 0.281-0.271 0.608-0.529 0.726-0.256 0.119-0.422 0.444-0.366 0.722s-0.070 0.662-0.278 0.854-0.266 0.552-0.127 0.801c0.139 0.246 0.139 0.651 0 0.897-0.139 0.248-0.082 0.607 0.127 0.802 0.209 0.19 0.333 0.575 0.278 0.854-0.056 0.277 0.11 0.602 0.366 0.72 0.258 0.119 0.495 0.447 0.528 0.727 0.034 0.282 0.29 0.54 0.572 0.572s0.609 0.272 0.728 0.529c0.118 0.256 0.443 0.421 0.72 0.366 0.278-0.055 0.663 0.069 0.854 0.278 0.194 0.208 0.553 0.266 0.801 0.127 0.246-0.139 0.651-0.139 0.898 0s0.607 0.081 0.8-0.127c0.193-0.21 0.576-0.333 0.854-0.278s0.604-0.109 0.723-0.365zM10 9.399c-1.878 0-3.4-1.523-3.4-3.399 0-1.878 1.522-3.401 3.4-3.401s3.4 1.523 3.4 3.401c0 1.876-1.523 3.399-3.4 3.399zM5.975 11.409l-1.243 7.049 3.128-0.464 2.781 1.506 1.238-7.021c-0.597 0.173-1.227 0.271-1.88 0.271-1.509 0-2.899-0.502-4.024-1.341zM13.961 11.457c-0.311 0.226-0.642 0.426-0.99 0.597l-0.748 4.236 3.369-1.828-1.631-3.005z"></path>
</symbol>
<symbol id="icon-users" viewBox="0 0 20 20">
<path d="M15.989 19.129c0-2.246-2.187-3.389-4.317-4.307-2.123-0.914-2.801-1.684-2.801-3.334 0-0.989 0.648-0.667 0.932-2.481 0.12-0.752 0.692-0.012 0.802-1.729 0-0.684-0.313-0.854-0.313-0.854s0.159-1.013 0.221-1.793c0.064-0.817-0.398-2.56-2.301-3.095-0.332-0.341-0.557-0.882 0.467-1.424-2.24-0.104-2.761 1.068-3.954 1.93-1.015 0.756-1.289 1.953-1.24 2.59 0.065 0.78 0.223 1.793 0.223 1.793s-0.314 0.17-0.314 0.854c0.11 1.718 0.684 0.977 0.803 1.729 0.284 1.814 0.933 1.492 0.933 2.481 0 1.65-0.212 2.21-2.336 3.124-2.131 0.917-2.794 2.387-2.783 4.516 0.003 0.637-0.011 0.871-0.011 0.871h16c0 0-0.011-0.234-0.011-0.871zM18.528 13.365c-1.135-0.457-1.605-1.002-1.605-2.066 0-0.641 0.418-0.432 0.602-1.603 0.077-0.484 0.447-0.008 0.518-1.115 0-0.441-0.202-0.551-0.202-0.551s0.103-0.656 0.143-1.159c0.050-0.627-0.364-2.247-2.268-2.247s-2.318 1.62-2.269 2.247c0.042 0.502 0.144 1.159 0.144 1.159s-0.202 0.109-0.202 0.551c0.071 1.107 0.441 0.631 0.518 1.115 0.184 1.172 0.602 0.963 0.602 1.603 0 1.064-0.438 1.562-1.809 2.152-0.069 0.029-0.12 0.068-0.183 0.102 1.64 0.712 4.226 1.941 4.838 4.447h2.645c0 0 0-1.906 0-2.318 0-1-0.273-1.834-1.472-2.317z"></path>
</symbol>
<symbol id="icon-slideshare" viewBox="0 0 20 20">
<path d="M13 7.080c1.381 0 2.5-1.119 2.5-2.5s-1.119-2.5-2.5-2.5-2.5 1.119-2.5 2.5 1.12 2.5 2.5 2.5zM18.845 5.943c-3.58 2.555-5.229 2.108-6.845 2.057-1.118-0.057-1.5 0.298-1.5 1.080l0.001 6c0 5 8.421 3.43 5.165-4.949 1.671-0.959 3.076-2.434 3.876-3.412 0.411-0.608-0.028-1.245-0.697-0.776zM7 2.080c-1.381 0-2.5 1.119-2.5 2.5s1.119 2.5 2.5 2.5 2.5-1.119 2.5-2.5-1.12-2.5-2.5-2.5zM8 8c-1.616 0.051-3.265 0.498-6.845-2.057-0.669-0.469-1.108 0.168-0.697 0.775 0.8 0.979 2.205 2.453 3.876 3.412-3.256 8.379 5.165 9.949 5.165 4.949l0.001-6c0-0.781-0.382-1.136-1.5-1.079z"></path>
</symbol>
<symbol id="icon-users1" viewBox="0 0 36 32">
<path d="M24 24.082v-1.649c2.203-1.241 4-4.337 4-7.432 0-4.971 0-9-6-9s-6 4.029-6 9c0 3.096 1.797 6.191 4 7.432v1.649c-6.784 0.555-12 3.888-12 7.918h28c0-4.030-5.216-7.364-12-7.918z"></path>
<path d="M10.225 24.854c1.728-1.13 3.877-1.989 6.243-2.513-0.47-0.556-0.897-1.176-1.265-1.844-0.95-1.726-1.453-3.627-1.453-5.497 0-2.689 0-5.228 0.956-7.305 0.928-2.016 2.598-3.265 4.976-3.734-0.529-2.39-1.936-3.961-5.682-3.961-6 0-6 4.029-6 9 0 3.096 1.797 6.191 4 7.432v1.649c-6.784 0.555-12 3.888-12 7.918h8.719c0.454-0.403 0.956-0.787 1.506-1.146z"></path>
</symbol>
<symbol id="icon-accessibility" viewBox="0 0 32 32">
<path d="M13 3c0-1.657 1.343-3 3-3s3 1.343 3 3c0 1.657-1.343 3-3 3s-3-1.343-3-3z"></path>
<path d="M20 10l10.3-4.443-0.743-1.857-12.557 4.3h-2l-12.557-4.3-0.743 1.857 10.3 4.443v8l-4.102 13.268 1.87 0.709 5.804-12.977h0.857l5.804 12.977 1.87-0.709-4.102-13.268z"></path>
</symbol>
<symbol id="icon-eye" viewBox="0 0 32 32">
<path d="M16 6c-6.979 0-13.028 4.064-16 10 2.972 5.936 9.021 10 16 10s13.027-4.064 16-10c-2.972-5.936-9.021-10-16-10zM23.889 11.303c1.88 1.199 3.473 2.805 4.67 4.697-1.197 1.891-2.79 3.498-4.67 4.697-2.362 1.507-5.090 2.303-7.889 2.303s-5.527-0.796-7.889-2.303c-1.88-1.199-3.473-2.805-4.67-4.697 1.197-1.891 2.79-3.498 4.67-4.697 0.122-0.078 0.246-0.154 0.371-0.228-0.311 0.854-0.482 1.776-0.482 2.737 0 4.418 3.582 8 8 8s8-3.582 8-8c0-0.962-0.17-1.883-0.482-2.737 0.124 0.074 0.248 0.15 0.371 0.228v0zM16 13c0 1.657-1.343 3-3 3s-3-1.343-3-3 1.343-3 3-3 3 1.343 3 3z"></path>
</symbol>
<symbol id="icon-star-full" viewBox="0 0 32 32">
<path d="M32 12.408l-11.056-1.607-4.944-10.018-4.944 10.018-11.056 1.607 8 7.798-1.889 11.011 9.889-5.199 9.889 5.199-1.889-11.011 8-7.798z"></path>
</symbol>
<symbol id="icon-heart1" viewBox="0 0 32 32">
<path d="M23.6 2c-3.363 0-6.258 2.736-7.599 5.594-1.342-2.858-4.237-5.594-7.601-5.594-4.637 0-8.4 3.764-8.4 8.401 0 9.433 9.516 11.906 16.001 21.232 6.13-9.268 15.999-12.1 15.999-21.232 0-4.637-3.763-8.401-8.4-8.401z"></path>
</symbol>
<symbol id="icon-play" viewBox="0 0 32 32">
<path d="M16 6c-6.979 0-13.028 4.064-16 10 2.972 5.936 9.021 10 16 10s13.027-4.064 16-10c-2.972-5.936-9.021-10-16-10zM23.889 11.303c1.88 1.199 3.473 2.805 4.67 4.697-1.197 1.891-2.79 3.498-4.67 4.697-2.362 1.507-5.090 2.303-7.889 2.303s-5.527-0.796-7.889-2.303c-1.88-1.199-3.473-2.805-4.67-4.697 1.197-1.891 2.79-3.498 4.67-4.697 0.122-0.078 0.246-0.154 0.371-0.228-0.311 0.854-0.482 1.776-0.482 2.737 0 4.418 3.582 8 8 8s8-3.582 8-8c0-0.962-0.17-1.883-0.482-2.737 0.124 0.074 0.248 0.15 0.371 0.228v0zM16 13c0 1.657-1.343 3-3 3s-3-1.343-3-3 1.343-3 3-3 3 1.343 3 3z"></path>
</symbol>
</defs>
</svg>
